:FULLY-SPECIFIED
:FORCE-ALL-JOINTS-BE-3DOF
:DEGREES
2854
root -6.08871 13.2698 -28.8163 1240.94 -66.5334 -159.319
lfemur -65.1452 45.0164 -5.29115
ltibia 77.0107 0 0
lfoot -4.7364 -6.12766 0
ltoes -28.8611 0 0
rfemur -31.0622 -19.2756 22.3356
rtibia 88.6599 0 0
rfoot -41.0533 -28.5901 0
rtoes -14.0595 0 0
lowerback 15.7063 5.72383 0.863552
upperback -4.47788 8.1009 1.6736
thorax -13.9711 3.75973 -0.839194
lowerneck -2.51369 9.66935 2.20793
upperneck 9.04497 12.5992 2.00523
head 3.36288 6.36237 0.742981
lclavicle 7.35038e-15 -1.35491e-14 0
lhumerus 5.31081 12.1829 84.3686
lradius 93.6411 0 0
lwrist -19.1406 0 0
lhand -39.6645 388.797 0
lfingers 7.12502 0 0
lthumb -12.6443 -661.606 0
rclavicle 7.35038e-15 -1.35491e-14 0
rhumerus -59.0454 50.8139 -111.419
rradius 113.675 0 0
rwrist -83.7227 0 0
rhand 7.99372 -386.034 0
rfingers 7.12502 0 0
rthumb 33.2211 307.012 0
2855
root -6.08932 13.2667 -28.8153 1240.95 -66.5439 -159.32
lfemur -65.1656 45.0163 -5.31119
ltibia 77.0147 0 0
lfoot -4.73578 -6.1342 0
ltoes -28.8491 0 0
rfemur -31.0718 -19.2692 22.3351
rtibia 88.6685 0 0
rfoot -41.0459 -28.6141 0
rtoes -14.0503 0 0
lowerback 15.7029 5.71969 0.862748
upperback -4.47799 8.0951 1.67372
thorax -13.9693 3.7572 -0.836691
lowerneck -2.51326 9.6676 2.20745
upperneck 9.0456 12.5969 2.00457
head 3.36303 6.36119 0.742762
lclavicle 1.04051e-14 -1.18774e-14 0
lhumerus 5.32122 12.1957 84.3689
lradius 93.6277 0 0
lwrist -19.1305 0 0
lhand -39.6532 388.767 0
lfingers 7.12502 0 0
lthumb -12.6334 -661.635 0
rclavicle 1.04051e-14 -1.18774e-14 0
rhumerus -59.0512 50.8302 -111.424
rradius 113.673 0 0
rwrist -83.7316 0 0
rhand 7.97723 -386.039 0
rfingers 7.12502 0 0
rthumb 33.2054 307.005 0
2856
root -6.08993 13.2636 -28.8143 1240.95 -66.5611 -159.312
lfemur -65.2043 45.0163 -5.34138
ltibia 77.0265 0 0
lfoot -4.7398 -6.14894 0
ltoes -28.8432 0 0
rfemur -31.0885 -19.2595 22.3377
rtibia 88.685 0 0
rfoot -41.0347 -28.6558 0
rtoes -14.0421 0 0
lowerback 15.6997 5.71283 0.864701
upperback -4.47861 8.08627 1.67413
thorax -13.9679 3.75302 -0.834582
lowerneck -2.51308 9.66521 2.20711
upperneck 9.04665 12.5937 2.00386
head 3.36339 6.35958 0.742504
lclavicle 1.63432e-14 -9.20343e-15 0
lhumerus 5.3414 12.2142 84.3689
lradius 93.6055 0 0
lwrist -19.1161 0 0
lhand -39.6346 388.718 0
lfingers 7.12502 0 0
lthumb -12.6155 -661.683 0
rclavicle 1.63432e-14 -9.20343e-15 0
rhumerus -59.0612 50.8557 -111.432
rradius 113.67 0 0
rwrist -83.7407 0 0
rhand 7.95542 -386.04 0
rfingers 7.12502 0 0
rthumb 33.1846 306.999 0
2857
root -6.09055 13.2606 -28.8133 1240.94 -66.5871 -159.291
lfemur -65.2687 45.0166 -5.3844
ltibia 77.05 0 0
lfoot -4.75135 -6.1757 0
ltoes -28.8492 0 0
rfemur -31.1153 -19.2459 22.3454
rtibia 88.7127 0 0
rfoot -41.0188 -28.722 0
rtoes -14.0369 0 0
lowerback 15.6975 5.70234 0.871201
upperback -4.48007 8.07358 1.67499
thorax -13.9674 3.74665 -0.833535
lowerneck -2.51338 9.6621 2.20706
upperneck 9.04828 12.5896 2.00315
head 3.36405 6.35747 0.742218
lclavicle 2.63711e-14 -5.21255e-15 0
lhumerus 5.37543 12.2395 84.3684
lradius 93.5717 0 0
lwrist -19.0965 0 0
lhand -39.6062 388.642 0
lfingers 7.12502 0 0
lthumb -12.588 -661.757 0
rclavicle 2.63711e-14 -5.21255e-15 0
rhumerus -59.0766 50.8929 -111.445
rradius 113.665 0 0
rwrist -83.7484 0 0
rhand 7.92795 -386.037 0
rfingers 7.12502 0 0
rthumb 33.1585 306.997 0
2858
root -6.09116 13.2575 -28.8123 1240.92 -66.6241 -159.252
lfemur -65.3663 45.0174 -5.4429
ltibia 77.0892 0 0
lfoot -4.7733 -6.21826 0
ltoes -28.8728 0 0
rfemur -31.1549 -19.2275 22.3603
rtibia 88.7549 0 0
rfoot -40.9972 -28.8192 0
rtoes -14.0367 0 0
lowerback 15.697 5.68729 0.88404
upperback -4.48264 8.0562 1.67647
thorax -13.9684 3.73752 -0.834217
lowerneck -2.51439 9.65819 2.20747
upperneck 9.05064 12.5842 2.00254
head 3.36513 6.35481 0.74192
lclavicle 4.16951e-14 4.10019e-16 0
lhumerus 5.42738 12.2729 84.3673
lradius 93.5233 0 0
lwrist -19.0707 0 0
lhand -39.5654 388.534 0
lfingers 7.12502 0 0
lthumb -12.5487 -661.863 0
rclavicle 4.16951e-14 4.10019e-16 0
rhumerus -59.0989 50.9446 -111.466
rradius 113.656 0 0
rwrist -83.7533 0 0
rhand 7.89443 -386.026 0
rfingers 7.12502 0 0
rthumb 33.1266 307 0
2859
root -6.09177 13.2544 -28.8113 1240.89 -66.6743 -159.19
lfemur -65.5046 45.0187 -5.51955
ltibia 77.148 0 0
lfoot -4.80857 -6.28043 0
ltoes -28.9198 0 0
rfemur -31.2099 -19.2036 22.3844
rtibia 88.8147 0 0
rfoot -40.9689 -28.9541 0
rtoes -14.0439 0 0
lowerback 15.6988 5.66676 0.905009
upperback -4.48664 8.03332 1.67871
thorax -13.9715 3.72509 -0.837294
lowerneck -2.51632 9.6534 2.20851
upperneck 9.05387 12.5776 2.0021
head 3.36672 6.35152 0.741623
lclavicle 6.35217e-14 7.97902e-15 0
lhumerus 5.50132 12.3155 84.3653
lradius 93.4572 0 0
lwrist -19.0378 0 0
lhand -39.5097 388.387 0
lfingers 7.12502 0 0
lthumb -12.4951 -662.006 0
rclavicle 6.35217e-14 7.97902e-15 0
rhumerus -59.1296 51.0135 -111.496
rradius 113.644 0 0
rwrist -83.754 0 0
rhand 7.85452 -386.007 0
rfingers 7.12502 0 0
rthumb 33.0887 307.012 0
2860
root -6.09239 13.2514 -28.8103 1240.84 -66.74 -159.1
lfemur -65.691 45.0208 -5.61701
ltibia 77.2305 0 0
lfoot -4.86002 -6.36601 0
ltoes -28.996 0 0
rfemur -31.2831 -19.1733 22.4196
rtibia 88.8954 0 0
rfoot -40.9328 -29.1331 0
rtoes -14.0604 0 0
lowerback 15.7037 5.63982 0.935899
upperback -4.49235 8.0041 1.68189
thorax -13.9772 3.7088 -0.843432
lowerneck -2.5194 9.64765 2.21032
upperneck 9.05812 12.5695 2.0019
head 3.36893 6.34757 0.74134
lclavicle 9.30572e-14 1.78092e-14 0
lhumerus 5.60133 12.3685 84.3623
lradius 93.3707 0 0
lwrist -18.9971 0 0
lhand -39.4368 388.195 0
lfingers 7.12502 0 0
lthumb -12.4247 -662.194 0
rclavicle 9.30572e-14 1.78092e-14 0
rhumerus -59.17 51.1022 -111.536
rradius 113.627 0 0
rwrist -83.7489 0 0
rhand 7.80785 -385.975 0
rfingers 7.12502 0 0
rthumb 33.0443 307.034 0
2861
root -6.093 13.2483 -28.8093 1240.78 -66.8232 -158.976
lfemur -65.933 45.0237 -5.73794
ltibia 77.3405 0 0
lfoot -4.93055 -6.4788 0
ltoes -29.107 0 0
rfemur -31.3773 -19.1359 22.4679
rtibia 89.0004 0 0
rfoot -40.8881 -29.3629 0
rtoes -14.0883 0 0
lowerback 15.7125 5.60557 0.978502
upperback -4.50008 7.96772 1.68615
thorax -13.986 3.68811 -0.853298
lowerneck -2.52387 9.64085 2.21309
upperneck 9.06355 12.5599 2.00202
head 3.37184 6.34287 0.741085
lclavicle 1.31508e-13 3.02153e-14 0
lhumerus 5.73149 12.4332 84.3581
lradius 93.2606 0 0
lwrist -18.9475 0 0
lhand -39.344 387.95 0
lfingers 7.12502 0 0
lthumb -12.3353 -662.433 0
rclavicle 1.31508e-13 3.02153e-14 0
rhumerus -59.2217 51.2134 -111.588
rradius 113.604 0 0
rwrist -83.7367 0 0
rhand 7.75405 -385.93 0
rfingers 7.12502 0 0
rthumb 32.9931 307.068 0
2862
root -6.09336 13.2465 -28.8066 1240.77 -66.8345 -158.95
lfemur -65.9746 45.0197 -5.75595
ltibia 77.3634 0 0
lfoot -4.96672 -6.47579 0
ltoes -29.1946 0 0
rfemur -31.3992 -19.1259 22.4775
rtibia 89.0219 0 0
rfoot -40.883 -29.397 0
rtoes -14.0757 0 0
lowerback 15.7217 5.60104 0.993012
upperback -4.50308 7.96512 1.68738
thorax -13.9932 3.68539 -0.860269
lowerneck -2.5261 9.63942 2.21367
upperneck 9.06447 12.5577 2.00426
head 3.37246 6.34188 0.741779
lclavicle 1.31703e-13 3.01867e-14 0
lhumerus 5.73746 12.4433 84.3574
lradius 93.2513 0 0
lwrist -18.9432 0 0
lhand -39.3362 387.94 0
lfingers 7.12502 0 0
lthumb -12.3278 -662.442 0
rclavicle 1.31703e-13 3.01867e-14 0
rhumerus -59.2229 51.2249 -111.591
rradius 113.598 0 0
rwrist -83.7297 0 0
rhand 7.7496 -385.933 0
rfingers 7.12502 0 0
rthumb 32.9889 307.064 0
2863
root -6.09371 13.2447 -28.804 1240.76 -66.8413 -158.935
lfemur -66.0006 45.0172 -5.76729
ltibia 77.3778 0 0
lfoot -4.98987 -6.4729 0
ltoes -29.2509 0 0
rfemur -31.4132 -19.1196 22.4833
rtibia 89.0354 0 0
rfoot -40.8798 -29.4179 0
rtoes -14.0674 0 0
lowerback 15.7274 5.59831 1.00226
upperback -4.50506 7.96367 1.68808
thorax -13.9978 3.68374 -0.864851
lowerneck -2.52754 9.63846 2.21398
upperneck 9.06512 12.5562 2.00579
head 3.37287 6.34121 0.742266
lclavicle 1.31558e-13 3.01167e-14 0
lhumerus 5.7405 12.4495 84.3569
lradius 93.2458 0 0
lwrist -18.9411 0 0
lhand -39.3315 387.934 0
lfingers 7.12502 0 0
lthumb -12.3232 -662.448 0
rclavicle 1.31558e-13 3.01167e-14 0
rhumerus -59.2235 51.2318 -111.593
rradius 113.595 0 0
rwrist -83.7251 0 0
rhand 7.74727 -385.936 0
rfingers 7.12502 0 0
rthumb 32.9867 307.061 0
2864
root -6.09407 13.2429 -28.8013 1240.75 -66.8443 -158.927
lfemur -66.0142 45.0159 -5.77346
ltibia 77.3854 0 0
lfoot -5.00342 -6.46897 0
ltoes -29.2845 0 0
rfemur -31.4212 -19.1161 22.486
rtibia 89.0427 0 0
rfoot -40.8783 -29.428 0
rtoes -14.0623 0 0
lowerback 15.7305 5.59712 1.00758
upperback -4.50633 7.96332 1.6883
thorax -14.0004 3.68302 -0.86781
lowerneck -2.52841 9.6378 2.21401
upperneck 9.06565 12.5552 2.00692
head 3.37314 6.34075 0.742647
lclavicle 1.30844e-13 2.99547e-14 0
lhumerus 5.74044 12.4526 84.3564
lradius 93.2433 0 0
lwrist -18.941 0 0
lhand -39.3292 387.932 0
lfingers 7.12502 0 0
lthumb -12.321 -662.45 0
rclavicle 1.30844e-13 2.99547e-14 0
rhumerus -59.2238 51.2349 -111.594
rradius 113.592 0 0
rwrist -83.722 0 0
rhand 7.74711 -385.937 0
rfingers 7.12502 0 0
rthumb 32.9865 307.06 0
2865
root -6.09442 13.2411 -28.7987 1240.75 -66.8444 -158.926
lfemur -66.0187 45.0154 -5.776
ltibia 77.3882 0 0
lfoot -5.01079 -6.46282 0
ltoes -29.304 0 0
rfemur -31.4254 -19.1144 22.4862
rtibia 89.0455 0 0
rfoot -40.878 -29.4296 0
rtoes -14.0588 0 0
lowerback 15.7316 5.5972 1.01032
upperback -4.50723 7.96404 1.68807
thorax -14.0017 3.68304 -0.869916
lowerneck -2.52895 9.63726 2.21377
upperneck 9.06622 12.5543 2.00795
head 3.37334 6.34037 0.743029
lclavicle 1.29329e-13 2.965e-14 0
lhumerus 5.73712 12.4534 84.3557
lradius 93.2433 0 0
lwrist -18.9433 0 0
lhand -39.3288 387.933 0
lfingers 7.12502 0 0
lthumb -12.3207 -662.45 0
rclavicle 1.29329e-13 2.965e-14 0
rhumerus -59.2237 51.235 -111.595
rradius 113.591 0 0
rwrist -83.7196 0 0
rhand 7.74919 -385.938 0
rfingers 7.12502 0 0
rthumb 32.9885 307.059 0
2866
root -6.09478 13.2393 -28.796 1240.76 -66.842 -158.93
lfemur -66.0175 45.0155 -5.77641
ltibia 77.3881 0 0
lfoot -5.01539 -6.45327 0
ltoes -29.3177 0 0
rfemur -31.4276 -19.1138 22.4845
rtibia 89.0457 0 0
rfoot -40.8787 -29.425 0
rtoes -14.0558 0 0
lowerback 15.7315 5.59828 1.01179
upperback -4.50808 7.96578 1.68743
thorax -14.0024 3.68366 -0.871936
lowerneck -2.52938 9.63667 2.21324
upperneck 9.06696 12.5534 2.00919
head 3.37355 6.33996 0.743515
lclavicle 1.26782e-13 2.9152e-14 0
lhumerus 5.73036 12.4525 84.3547
lradius 93.2453 0 0
lwrist -18.9479 0 0
lhand -39.3299 387.936 0
lfingers 7.12502 0 0
lthumb -12.3217 -662.446 0
rclavicle 1.26782e-13 2.9152e-14 0
rhumerus -59.2234 51.2327 -111.596
rradius 113.59 0 0
rwrist -83.7171 0 0
rhand 7.75356 -385.938 0
rfingers 7.12502 0 0
rthumb 32.9926 307.06 0
